<svg xmlns="http://www.w3.org/2000/svg" viewBox="0 0 32 32">
<path d="M15.8 3c-3 0-5.4 1-5.4 3.4v3h5.6v1H8.2C5.8 10.4 4 12 4 15.9c0 3.8 1.6 5.3 4 5.3h2v-3.3c0-2.6 2.2-4.5 4.7-4.5h5.5c2.2 0 3.8-1.6 3.8-3.7V6.4C24 4.3 22 3 19.5 3zm-3 2a1.2 1.2 0 110 2.5 1.2 1.2 0 010-2.5z" fill="#3572a5"/>
<path d="M16.2 29c3 0 5.4-1 5.4-3.4v-3H16v-1h7.8c2.4 0 4.2-1.6 4.2-5.5 0-3.8-1.6-5.3-4-5.3h-2v3.3c0 2.6-2.2 4.5-4.7 4.5h-5.5c-2.2 0-3.8 1.6-3.8 3.7v4.3C8 27.7 10 29 12.5 29zm3-2a1.2 1.2 0 110-2.5 1.2 1.2 0 010 2.5z" fill="#ffd43b"/>
</svg>
